<?xml version="1.0" standalone="no"?>
<!DOCTYPE svg PUBLIC "-//W3C//DTD SVG 20010904//EN"
 "http://www.w3.org/TR/2001/REC-SVG-20010904/DTD/svg10.dtd">
<svg version="1.0" xmlns="http://www.w3.org/2000/svg"
 width="512.000000pt" height="512.000000pt" viewBox="0 0 512.000000 512.000000"
 preserveAspectRatio="xMidYMid meet">
<metadata>
Created by potrace 1.14, written by Peter Selinger 2001-2017
</metadata>
<g transform="translate(0.000000,512.000000) scale(0.100000,-0.100000)"
fill="#1c1917" stroke="none">
<path d="M2305 5109 c-38 -4 -87 -10 -107 -13 -21 -3 -55 -9 -75 -12 -232 -35
-533 -138 -760 -260 -236 -125 -426 -266 -613 -454 -201 -202 -351 -408 -476
-658 -65 -128 -155 -351 -168 -413 -3 -13 -10 -40 -16 -59 -28 -90 -53 -224
-75 -390 -17 -139 -13 -520 8 -650 25 -150 27 -159 53 -264 80 -318 227 -632
408 -876 14 -19 34 -46 43 -60 103 -144 329 -365 517 -504 314 -232 750 -416
1091 -462 28 -3 52 -7 55 -9 30 -18 508 -27 642 -13 1002 112 1836 783 2157
1736 22 67 43 137 46 154 3 17 8 34 10 38 10 16 53 259 62 348 12 119 9 507
-5 602 -86 586 -337 1093 -737 1485 -125 122 -155 149 -251 220 -49 37 -97 73
-107 81 -9 8 -20 14 -23 14 -3 0 -31 17 -62 38 -286 193 -708 338 -1107 381
-95 10 -411 10 -510 0z"/>
</g>
</svg>
